<svg xmlns="http://www.w3.org/2000/svg" viewBox="0 32.13 472.14 407.88"><g fill="currentColor"><path d="M31.651 282.194V66.289a2.508 2.508 0 012.504-2.504h318.137a2.508 2.508 0 012.504 2.504v61.41h31.652v-61.41c0-18.832-15.316-34.155-34.156-34.155H34.155C15.314 32.134 0 47.457 0 66.289v215.905c0 18.831 15.314 34.155 34.155 34.155h106.652v41.835h-16.814c-8.747 0-15.826 7.087-15.826 15.826 0 8.74 7.079 15.825 15.826 15.825h104.181V284.697H34.155a2.507 2.507 0 01-2.504-2.503z"/><path d="M435.083 159.349H296.887c-20.432 0-37.061 16.622-37.061 37.061v206.539c0 20.439 16.63 37.061 37.061 37.061h138.196c20.433 0 37.06-16.622 37.06-37.061V196.41c0-20.439-16.627-37.061-37.06-37.061zM291.478 196.41a5.416 5.416 0 015.409-5.41h138.196a5.417 5.417 0 015.41 5.41v191.817H291.478V196.41zm74.507 229.46c-4.992 0-9.211-2.93-11.328-7.087-.896-1.753-1.531-3.662-1.531-5.772 0-7.103 5.75-12.858 12.859-12.858 7.095 0 12.857 5.755 12.857 12.858 0 2.109-.633 4.018-1.529 5.772-2.132 4.157-6.335 7.087-11.328 7.087z"/></g></svg>