<!-- SVG ICON DEFINITIONS -->
<svg
    display="none"
    width="0"
    height="0"
    xmlns="http://www.w3.org/2000/svg"
    xmlns:xlink="http://www.w3.org/1999/xlink"
>
    <defs>
        <symbol id="icon-monitor-and-tablet" viewBox="0 32.13 472.14 407.88">
            <g><path style="fill: currentColor;" d="M31.651,282.194V66.289c0-1.383,1.127-2.504,2.504-2.504h318.137c1.376,0,2.504,1.121,2.504,2.504   v61.41h31.652v-61.41c0-18.832-15.316-34.155-34.156-34.155H34.155C15.314,32.134,0,47.457,0,66.289v215.905   c0,18.831,15.314,34.155,34.155,34.155h106.652v41.835h-16.814c-8.747,0-15.826,7.087-15.826,15.826   c0,8.74,7.079,15.825,15.826,15.825h104.181v-31.651v-57.661v-15.826H34.155C32.778,284.697,31.651,283.577,31.651,282.194z"></path>	
                <path style="fill: currentColor;" d="M435.083,159.349H296.887c-20.432,0-37.061,16.622-37.061,37.061v206.539   c0,20.439,16.63,37.061,37.061,37.061h138.196c20.433,0,37.06-16.622,37.06-37.061V196.41   C472.143,175.971,455.516,159.349,435.083,159.349z M291.478,196.41c0-2.982,2.426-5.41,5.409-5.41h138.196   c2.983,0,5.41,2.428,5.41,5.41v191.817H291.478V196.41z M365.985,425.87c-4.992,0-9.211-2.93-11.328-7.087   c-0.896-1.753-1.531-3.662-1.531-5.772c0-7.103,5.75-12.858,12.859-12.858c7.095,0,12.857,5.755,12.857,12.858   c0,2.109-0.633,4.018-1.529,5.772C375.181,422.94,370.978,425.87,365.985,425.87z"></path>
            </g>
        </symbol>
        <symbol id="icon-file-pdf-solid" viewBox="0 0 384 512">
            <path d="M181.9 256.1c-5-16-4.9-46.9-2-46.9 8.4 0 7.6 36.9 2 46.9zm-1.7 47.2c-7.7 20.2-17.3 43.3-28.4 62.7 18.3-7 39-17.2 62.9-21.9-12.7-9.6-24.9-23.4-34.5-40.8zM86.1 428.1c0 .8 13.2-5.4 34.9-40.2-6.7 6.3-29.1 24.5-34.9 40.2zM248 160h136v328c0 13.3-10.7 24-24 24H24c-13.3 0-24-10.7-24-24V24C0 10.7 10.7 0 24 0h200v136c0 13.2 10.8 24 24 24zm-8 171.8c-20-12.2-33.3-29-42.7-53.8 4.5-18.5 11.6-46.6 6.2-64.2-4.7-29.4-42.4-26.5-47.8-6.8-5 18.3-.4 44.1 8.1 77-11.6 27.6-28.7 64.6-40.8 85.8-.1 0-.1.1-.2.1-27.1 13.9-73.6 44.5-54.5 68 5.6 6.9 16 10 21.5 10 17.9 0 35.7-18 61.1-61.8 25.8-8.5 54.1-19.1 79-23.2 21.7 11.8 47.1 19.5 64 19.5 29.2 0 31.2-32 19.7-43.4-13.9-13.6-54.3-9.7-73.6-7.2zM377 105L279 7c-4.5-4.5-10.6-7-17-7h-6v128h128v-6.1c0-6.3-2.5-12.4-7-16.9zm-74.1 255.3c4.1-2.7-2.5-11.9-42.8-9 37.1 15.8 42.8 9 42.8 9z"/>
        </symbol>
        <symbol id="icon-file-pdf" viewBox="0 0 384 512">
            <path d="M369.9 97.9L286 14C277 5 264.8-.1 252.1-.1H48C21.5 0 0 21.5 0 48v416c0 26.5 21.5 48 48 48h288c26.5 0 48-21.5 48-48V131.9c0-12.7-5.1-25-14.1-34zM332.1 128H256V51.9l76.1 76.1zM48 464V48h160v104c0 13.3 10.7 24 24 24h104v288H48zm250.2-143.7c-12.2-12-47-8.7-64.4-6.5-17.2-10.5-28.7-25-36.8-46.3 3.9-16.1 10.1-40.6 5.4-56-4.2-26.2-37.8-23.6-42.6-5.9-4.4 16.1-.4 38.5 7 67.1-10 23.9-24.9 56-35.4 74.4-20 10.3-47 26.2-51 46.2-3.3 15.8 26 55.2 76.1-31.2 22.4-7.4 46.8-16.5 68.4-20.1 18.9 10.2 41 17 55.8 17 25.5 0 28-28.2 17.5-38.7zm-198.1 77.8c5.1-13.7 24.5-29.5 30.4-35-19 30.3-30.4 35.7-30.4 35zm81.6-190.6c7.4 0 6.7 32.1 1.8 40.8-4.4-13.9-4.3-40.8-1.8-40.8zm-24.4 136.6c9.7-16.9 18-37 24.7-54.7 8.3 15.1 18.9 27.2 30.1 35.5-20.8 4.3-38.9 13.1-54.8 19.2zm131.6-5s-5 6-37.3-7.8c35.1-2.6 40.9 5.4 37.3 7.8z"/>
        </symbol>
        <symbol id="icon-moon" viewBox="0 0 30 30">
            <path
                d="M17.39 15.14A7.33 7.33 0 0 1 11.75 1.6c.23-.11.56-.23.79-.34a8.19 8.19 0 0 0-5.41.45 9 9 0 1 0 7 16.58 8.42 8.42 0 0 0 4.29-3.84 5.3 5.3 0 0 1-1.03.69z"
            />
        </symbol>

        <symbol id="icon-sun" viewBox="0 0 30 30">
            <path
                d="M18.1 5.1c0 .3-.1.6-.3.9l-1.4 1.4-.9-.8 2.2-2.2c.3.1.4.4.4.7zm-.5 5.3h3.2c0 .3-.1.6-.4.9s-.5.4-.8.4h-2v-1.3zm-6.2-5V2.2c.3 0 .6.1.9.4s.4.5.4.8v2h-1.3zm6.4 11.7c-.3 0-.6-.1-.8-.3l-1.4-1.4.8-.8 2.2 2.2c-.2.2-.5.3-.8.3zM6.2 4.9c.3 0 .6.1.8.3l1.4 1.4-.8.9-2.2-2.3c.2-.2.5-.3.8-.3zm5.2 11.7h1.2v3.2c-.3 0-.6-.1-.9-.4s-.4-.5-.4-.8l.1-2zm-7-6.2h2v1.2H3.2c0-.3.1-.6.4-.9s.5-.3.8-.3zM6.2 16l1.4-1.4.8.8-2.2 2.2c-.2-.2-.3-.5-.3-.8s.1-.6.3-.8z"
            />
            <circle cx="12" cy="11" r="4" />
        </symbol>
        <symbol id="right-arrow" viewBox="0 0 39 10">
            <path
                d="M29.507 5.418L.501 5.141l.01-1 29.006.277.038-4 8.956 4.586-9.042 4.414.038-4z"
                fill-rule="nonzero"
            />
        </symbol>
        <symbol id="left-arrow" viewBox="0 0 39 10">
            <path
                d="M9.51 4.227l29.006.277-.01 1-29.005-.277-.038 4L.506 4.641 9.549.227l-.039 4z"
                fill-rule="nonzero"
            />
        </symbol>
        <symbol id="icon-to-top" viewBox="0 0 32 32">
            <path d="M0 16c0 8.837 7.163 16 16 16s16-7.163 16-16-7.163-16-16-16-16 7.163-16 16zM29 16c0 7.18-5.82 13-13 13s-13-5.82-13-13 5.82-13 13-13 13 5.82 13 13z"></path>
            <path d="M22.086 20.914l2.829-2.829-8.914-8.914-8.914 8.914 2.828 2.828 6.086-6.086z"></path>
        </symbol>

        <symbol id="icon-codepen" viewBox="0 0 24 24">
            <path
                d="M23.545 7.486l-10.969-7.313c-0.374-0.23-0.774-0.232-1.152 0l-10.969 7.313c-0.281 0.187-0.455 0.522-0.455 0.857v7.312c0 0.335 0.174 0.67 0.455 0.857l10.969 7.314c0.374 0.23 0.774 0.233 1.152 0l10.969-7.314c0.281-0.187 0.455-0.522 0.455-0.857v-7.312c-0-0.335-0.174-0.67-0.455-0.857zM13.031 2.959l8.076 5.384-3.603 2.411-4.473-2.987v-4.808zM10.969 2.959v4.808l-4.473 2.987-3.603-2.411 8.076-5.384zM2.063 10.272l2.585 1.728-2.585 1.728v-3.455zM10.969 21.040l-8.076-5.384 3.603-2.411 4.473 2.987v4.808zM12 14.437l-3.643-2.438 3.643-2.438 3.643 2.438-3.643 2.438zM13.031 21.040v-4.808l4.473-2.987 3.603 2.411-8.076 5.384zM21.938 13.727l-2.585-1.728 2.585-1.728v3.455z"
            ></path>
        </symbol>
        <symbol id="icon-devto" viewBox="0 0 448 512">
            <path
                d="M120.12 208.29c-3.88-2.9-7.77-4.35-11.65-4.35H91.03v104.47h17.45c3.88 0 7.77-1.45 11.65-4.35 3.88-2.9 5.82-7.25 5.82-13.06v-69.65c-.01-5.8-1.96-10.16-5.83-13.06zM404.1 32H43.9C19.7 32 .06 51.59 0 75.8v360.4C.06 460.41 19.7 480 43.9 480h360.2c24.21 0 43.84-19.59 43.9-43.8V75.8c-.06-24.21-19.7-43.8-43.9-43.8zM154.2 291.19c0 18.81-11.61 47.31-48.36 47.25h-46.4V172.98h47.38c35.44 0 47.36 28.46 47.37 47.28l.01 70.93zm100.68-88.66H201.6v38.42h32.57v29.57H201.6v38.41h53.29v29.57h-62.18c-11.16.29-20.44-8.53-20.72-19.69V193.7c-.27-11.15 8.56-20.41 19.71-20.69h63.19l-.01 29.52zm103.64 115.29c-13.2 30.75-36.85 24.63-47.44 0l-38.53-144.8h32.57l29.71 113.72 29.57-113.72h32.58l-38.46 144.8z"
            ></path>
        </symbol>

        <symbol id="icon-dribbble" viewBox="0 0 24 24">
            <path
                d="M12 0.375c-6.41 0-11.625 5.215-11.625 11.625s5.215 11.625 11.625 11.625 11.625-5.215 11.625-11.625-5.215-11.625-11.625-11.625zM19.686 5.736c1.383 1.69 2.22 3.842 2.242 6.185-0.327-0.069-3.61-0.735-6.914-0.32-0.27-0.658-0.524-1.237-0.873-1.951 3.671-1.499 5.335-3.632 5.545-3.915zM18.582 4.588c-0.179 0.254-1.673 2.263-5.204 3.587-1.627-2.99-3.431-5.445-3.705-5.813 3.149-0.759 6.467 0.060 8.909 2.226zM7.778 3.029c0.262 0.359 2.036 2.818 3.681 5.743-4.645 1.233-8.736 1.216-9.18 1.21 0.644-3.081 2.72-5.642 5.498-6.952zM2.070 12.015c0-0.102 0.002-0.203 0.005-0.303 0.434 0.009 5.246 0.071 10.205-1.413 0.284 0.556 0.556 1.121 0.805 1.685-3.591 1.011-6.853 3.915-8.462 6.671-1.586-1.76-2.553-4.089-2.553-6.639zM5.905 19.849c1.037-2.12 3.852-4.857 7.855-6.223 1.394 3.623 1.971 6.659 2.118 7.53-3.193 1.36-7.032 0.987-9.973-1.307zM17.548 20.246c-0.102-0.604-0.63-3.511-1.929-7.080 3.112-0.498 5.845 0.317 6.185 0.424-0.443 2.763-2.028 5.149-4.256 6.655z"
            ></path>
        </symbol>
        <symbol id="icon-github" viewBox="0 0 23 24">
            <path
                d="M7.777 18.628c0 0.094-0.108 0.169-0.244 0.169-0.155 0.014-0.262-0.061-0.262-0.169 0-0.094 0.108-0.169 0.244-0.169 0.141-0.014 0.263 0.061 0.263 0.169zM6.319 18.417c-0.033 0.094 0.061 0.202 0.202 0.23 0.122 0.047 0.262 0 0.291-0.094s-0.061-0.202-0.202-0.244c-0.122-0.033-0.258 0.014-0.291 0.108zM8.391 18.337c-0.136 0.033-0.23 0.122-0.216 0.23 0.014 0.094 0.136 0.155 0.277 0.122 0.136-0.033 0.23-0.122 0.216-0.216-0.014-0.089-0.141-0.15-0.277-0.136zM11.475 0.375c-6.502 0-11.475 4.936-11.475 11.438 0 5.198 3.272 9.647 7.945 11.212 0.6 0.108 0.811-0.262 0.811-0.567 0-0.291-0.014-1.894-0.014-2.878 0 0-3.281 0.703-3.97-1.397 0 0-0.534-1.364-1.303-1.716 0 0-1.073-0.736 0.075-0.722 0 0 1.167 0.094 1.809 1.209 1.027 1.809 2.747 1.289 3.417 0.98 0.108-0.75 0.413-1.27 0.75-1.58-2.62-0.291-5.264-0.67-5.264-5.18 0-1.289 0.356-1.936 1.106-2.761-0.122-0.305-0.52-1.561 0.122-3.183 0.98-0.305 3.234 1.266 3.234 1.266 0.938-0.263 1.945-0.398 2.944-0.398s2.006 0.136 2.944 0.398c0 0 2.255-1.575 3.234-1.266 0.642 1.627 0.244 2.878 0.122 3.183 0.75 0.83 1.209 1.477 1.209 2.761 0 4.523-2.761 4.884-5.381 5.18 0.431 0.37 0.797 1.073 0.797 2.175 0 1.58-0.014 3.534-0.014 3.919 0 0.305 0.216 0.675 0.811 0.567 4.688-1.556 7.866-6.005 7.866-11.203 0-6.502-5.273-11.438-11.775-11.438zM4.556 16.542c-0.061 0.047-0.047 0.155 0.033 0.244 0.075 0.075 0.183 0.108 0.244 0.047 0.061-0.047 0.047-0.155-0.033-0.244-0.075-0.075-0.183-0.108-0.244-0.047zM4.050 16.163c-0.033 0.061 0.014 0.136 0.108 0.183 0.075 0.047 0.169 0.033 0.202-0.033 0.033-0.061-0.014-0.136-0.108-0.183-0.094-0.028-0.169-0.014-0.202 0.033zM5.569 17.831c-0.075 0.061-0.047 0.202 0.061 0.291 0.108 0.108 0.244 0.122 0.305 0.047 0.061-0.061 0.033-0.202-0.061-0.291-0.103-0.108-0.244-0.122-0.305-0.047zM5.034 17.142c-0.075 0.047-0.075 0.169 0 0.277s0.202 0.155 0.262 0.108c0.075-0.061 0.075-0.183 0-0.291-0.066-0.108-0.188-0.155-0.262-0.094z"
            ></path>
        </symbol>
        <symbol id="icon-linkedin" viewBox="0 0 382 382">
            <path
                d="M347.445,0H34.555C15.471,0,0,15.471,0,34.555v312.889C0,366.529,15.471,382,34.555,382h312.889
            C366.529,382,382,366.529,382,347.444V34.555C382,15.471,366.529,0,347.445,0z M118.207,329.844c0,5.554-4.502,10.056-10.056,10.056
            H65.345c-5.554,0-10.056-4.502-10.056-10.056V150.403c0-5.554,4.502-10.056,10.056-10.056h42.806
            c5.554,0,10.056,4.502,10.056,10.056V329.844z M86.748,123.432c-22.459,0-40.666-18.207-40.666-40.666S64.289,42.1,86.748,42.1
            s40.666,18.207,40.666,40.666S109.208,123.432,86.748,123.432z M341.91,330.654c0,5.106-4.14,9.246-9.246,9.246H286.73
            c-5.106,0-9.246-4.14-9.246-9.246v-84.168c0-12.556,3.683-55.021-32.813-55.021c-28.309,0-34.051,29.066-35.204,42.11v97.079
            c0,5.106-4.139,9.246-9.246,9.246h-44.426c-5.106,0-9.246-4.14-9.246-9.246V149.593c0-5.106,4.14-9.246,9.246-9.246h44.426
            c5.106,0,9.246,4.14,9.246,9.246v15.655c10.497-15.753,26.097-27.912,59.312-27.912c73.552,0,73.131,68.716,73.131,106.472
            L341.91,330.654L341.91,330.654z"
            />
        </symbol>
        <symbol id="icon-twitter" viewBox="0 0 24 24">
            <path
                d="M21.533 7.112c0.015 0.213 0.015 0.426 0.015 0.64 0 6.502-4.949 13.995-13.995 13.995-2.787 0-5.376-0.807-7.553-2.208 0.396 0.046 0.777 0.061 1.188 0.061 2.299 0 4.416-0.777 6.107-2.101-2.162-0.046-3.975-1.462-4.599-3.411 0.305 0.046 0.609 0.076 0.929 0.076 0.442 0 0.883-0.061 1.294-0.167-2.254-0.457-3.944-2.437-3.944-4.827v-0.061c0.655 0.365 1.416 0.594 2.223 0.624-1.325-0.883-2.193-2.391-2.193-4.096 0-0.914 0.244-1.751 0.67-2.482 2.421 2.985 6.061 4.934 10.142 5.147-0.076-0.365-0.122-0.746-0.122-1.127 0-2.711 2.193-4.919 4.919-4.919 1.416 0 2.695 0.594 3.594 1.553 1.112-0.213 2.178-0.624 3.122-1.188-0.366 1.142-1.142 2.102-2.162 2.711 0.99-0.107 1.949-0.381 2.832-0.761-0.67 0.975-1.508 1.843-2.467 2.543z"
            ></path>
        </symbol>
        <symbol id="icon-tags" viewBox="0 0 640 512">
            <path
                d="M497.941 225.941L286.059 14.059A48 48 0 0 0 252.118 0H48C21.49 0 0 21.49 0 48v204.118a48 48 0 0 0 14.059 33.941l211.882 211.882c18.744 18.745 49.136 18.746 67.882 0l204.118-204.118c18.745-18.745 18.745-49.137 0-67.882zM112 160c-26.51 0-48-21.49-48-48s21.49-48 48-48 48 21.49 48 48-21.49 48-48 48zm513.941 133.823L421.823 497.941c-18.745 18.745-49.137 18.745-67.882 0l-.36-.36L527.64 323.522c16.999-16.999 26.36-39.6 26.36-63.64s-9.362-46.641-26.36-63.64L331.397 0h48.721a48 48 0 0 1 33.941 14.059l211.882 211.882c18.745 18.745 18.745 49.137 0 67.882z"
            ></path>
        </symbol>
        <symbol id="icon-rss" viewBox="0 0 21 24">
            <path
                d="M6.004 19.498c0 1.658-1.344 3.002-3.002 3.002s-3.002-1.344-3.002-3.002 1.344-3.002 3.002-3.002 3.002 1.344 3.002 3.002zM14.238 21.713c-0.392-7.247-6.196-13.059-13.451-13.451-0.428-0.023-0.787 0.321-0.787 0.75v2.253c0 0.394 0.304 0.725 0.698 0.751 5.242 0.341 9.444 4.533 9.786 9.786 0.026 0.394 0.356 0.698 0.751 0.698h2.253c0.429 0 0.773-0.359 0.75-0.787zM21 21.726c-0.393-10.96-9.212-19.831-20.226-20.226-0.423-0.015-0.774 0.327-0.774 0.75v2.253c0 0.404 0.32 0.733 0.724 0.75 8.962 0.367 16.154 7.562 16.522 16.522 0.017 0.404 0.346 0.724 0.75 0.724h2.253c0.423-0 0.765-0.35 0.75-0.774z"
            ></path>
        </symbol>
    </defs>
</svg>
