<svg version="1" xmlns="http://www.w3.org/2000/svg" width="682.667" height="682.667" viewBox="0 0 512.000000 512.000000"><path d="M41.5 1.9C22.2 7.4 6.5 23.4 1.6 42.6.2 48.2 0 70.1 0 256s.2 207.8 1.6 213.4c5 19.6 21.4 36 41 41 5.6 1.4 27.5 1.6 213.4 1.6s207.8-.2 213.4-1.6c19.6-5 36-21.4 41-41 1.4-5.5 1.6-24.7 1.6-181V113.5l-56.7-56.7L398.5 0 223 .1C59.9.1 47.1.3 41.5 1.9zM341 113.5V170H57V57h284v56.5zm-60.7 174.9c29 8.7 50.1 30.2 57.8 59.1 3 11.1 3.2 31.8.5 42.5-4 15.8-10.5 27.8-20.5 38.3-33.3 35.1-90.9 35.1-124.2 0-10-10.5-16.5-22.5-20.5-38.3-2.7-10.7-2.5-31.4.5-42.5 7.2-27.2 27.9-49.4 53.7-57.9 11.4-3.7 17.7-4.6 30.9-4.2 10.4.3 14.8.9 21.8 3z"/></svg>